Coordinates
version=1
nRows=30
nColumns=33
inDegrees=yes

Units are S.I. units (second, meters, Newtons, ...)
Angles are in degrees.

endheader
time	ground_thorax_rot_x	ground_thorax_rot_y	ground_thorax_rot_z	ground_thorax_tx	ground_thorax_ty	ground_thorax_tz	clav_prot_r	clav_elev_r	scapula_abduction_r	scapula_elevation_r	scapula_upward_rot_r	scapula_winging_r	shoulder_elv_r	plane_of_elev_r	axial_rot_r	elbow_flexion_r	pro_sup_r	wrist_flex_r	wrist_dev_r	clav_prot_l	clav_elev_l	scapula_abduction_l	scapula_elevation_l	scapula_upward_rot_l	scapula_winging_l	shoulder_elv_l	plane_of_elev_l	axial_rot_l	elbow_flexion_l	pro_sup_l	wrist_flex_l	wrist_dev_l	
1.0200	0.398441	5.829571	14.080779	-0.121295	1.029946	0.030427	2.820831	9.046286	15.881748	5.258803	22.823466	-9.685487	22.679706	-68.635404	51.535150	64.195797	-23.847812	63.914538	-24.999797	14.338836	-7.465767	-22.607749	-18.946090	-44.900694	2.215207	65.603605	-31.697608	3.371865	68.647847	18.490635	0.642709	-24.902137	
1.0300	0.393425	5.830888	14.148933	-0.121393	1.029938	0.030333	2.827913	9.005422	16.035168	5.173561	22.974357	-9.744519	23.333493	-68.294170	50.842261	65.042738	-22.975044	60.987570	-24.999637	14.429133	-7.664176	-22.750399	-18.754665	-44.892346	2.291966	65.985321	-31.261265	3.798630	68.893604	17.807795	2.335512	-24.824568	
1.0400	0.387469	5.820994	14.221970	-0.121495	1.029900	0.030228	2.848611	8.960291	16.233134	5.077738	23.146153	-9.818162	23.946894	-67.926767	50.070386	65.829572	-21.722116	57.540399	-24.999350	14.527131	-7.857109	-22.898605	-18.557742	-44.860557	2.374519	66.352697	-30.805691	4.204237	69.092145	17.198858	4.074823	-24.686118	
1.0500	0.377423	5.803510	14.301791	-0.121610	1.029829	0.030125	2.883637	8.915764	16.469152	4.977903	23.331526	-9.903661	24.485080	-67.524092	49.195789	66.575071	-20.167874	53.453278	-24.998836	14.635049	-8.047278	-23.057228	-18.354479	-44.809438	2.464215	66.714010	-30.334891	4.583787	69.243264	16.656954	5.861815	-24.436725	
1.0600	0.359030	5.773847	14.377646	-0.121711	1.029703	0.030011	2.930025	8.870263	16.751096	4.867741	23.546266	-10.005130	24.891370	-67.051396	48.288852	67.193269	-18.535763	49.242350	-24.997915	14.750226	-8.217258	-23.217111	-18.153363	-44.721381	2.559092	67.046635	-29.852708	4.925201	69.365729	16.225211	7.456979	-23.993864	
1.0700	0.337455	5.746063	14.459728	-0.121818	1.029551	0.029899	2.993177	8.813044	17.059250	4.751279	23.750624	-10.110934	25.205144	-66.514188	47.331892	67.717715	-16.827765	44.703795	-24.996266	14.876861	-8.391477	-23.391516	-17.941491	-44.618715	2.662438	67.369527	-29.354216	5.233161	69.441559	15.812331	9.026944	-23.342287	
1.0800	0.312112	5.715379	14.529260	-0.121903	1.029394	0.029763	3.068740	8.723439	17.405822	4.605398	23.962027	-10.224639	25.418449	-65.883058	46.457109	68.026626	-15.330673	40.549547	-24.993311	15.008581	-8.561360	-23.561938	-17.715634	-44.475318	2.769093	67.656915	-28.836882	5.503919	69.454322	15.463230	10.338835	-22.525744	
1.0900	0.289325	5.686008	14.596804	-0.121978	1.029231	0.029601	3.166846	8.605144	17.796570	4.437559	24.166670	-10.346691	25.563388	-65.162867	45.710293	68.117193	-14.155188	36.708602	-24.988022	15.145304	-8.727428	-23.728689	-17.474953	-44.290898	2.879277	67.902255	-28.291158	5.735408	69.378787	15.146773	11.499354	-21.586617	
1.1000	0.261847	5.642946	14.653820	-0.122035	1.029066	0.029395	3.298483	8.433325	18.254301	4.228427	24.359093	-10.480559	25.677250	-64.346335	45.182800	67.920462	-13.371929	33.566876	-24.978532	15.285033	-8.880707	-23.883899	-17.220145	-44.048227	2.991569	68.084723	-27.732172	5.948148	69.213351	14.867658	12.471840	-20.602968	
1.1100	0.236305	5.594179	14.715560	-0.122083	1.028876	0.029147	3.468903	8.224881	18.769567	3.997289	24.523661	-10.623356	25.802895	-63.452005	44.875205	67.471020	-12.891182	30.750566	-24.961579	15.426174	-9.021791	-24.029584	-16.955981	-43.759975	3.105112	68.212537	-27.149313	6.143454	68.954597	14.576371	13.477996	-19.616567	
1.1200	0.204065	5.537770	14.760975	-0.122105	1.028679	0.028859	3.674297	7.957034	19.342894	3.723950	24.663830	-10.772092	25.935023	-62.485519	44.824799	66.719553	-12.825184	28.548624	-24.931081	15.567080	-9.157509	-24.160689	-16.673406	-43.419545	3.217850	68.299110	-26.554041	6.330774	68.597833	14.304829	14.416133	-18.715205	
1.1300	0.169731	5.473917	14.801951	-0.122098	1.028439	0.028533	3.913026	7.661230	19.963152	3.433871	24.783435	-10.926589	26.039022	-61.445338	45.044190	65.667891	-13.266918	26.667945	-24.876815	15.704020	-9.276545	-24.277486	-16.389463	-43.042341	3.328024	68.342608	-25.929909	6.513808	68.151996	14.034421	15.369305	-17.837440	
1.1400	0.122794	5.403549	14.825471	-0.122062	1.028194	0.028179	4.182561	7.305342	20.623145	3.103309	24.872529	-11.077878	26.090130	-60.359568	45.520092	64.252243	-14.162840	25.140464	-24.778590	15.839520	-9.395467	-24.385543	-16.091937	-42.635078	3.436475	68.368932	-25.292099	6.698515	67.614162	13.783491	16.280911	-17.015712	
1.1500	0.072290	5.325673	14.849415	-0.121991	1.027924	0.027773	4.482663	6.910631	21.310153	2.751327	24.927516	-11.222269	26.047902	-59.223465	46.349013	62.379199	-15.668139	23.734602	-24.605485	15.965713	-9.496800	-24.475575	-15.799139	-42.202943	3.538619	68.355384	-24.618566	6.887377	66.988724	13.519420	17.253753	-16.178746	
1.1600	0.006585	5.246191	14.860431	-0.121887	1.027679	0.027298	4.824931	6.414308	22.029671	2.334717	24.917040	-11.344241	25.833858	-58.092145	47.641975	59.804642	-18.025732	22.622076	-24.287465	16.083895	-9.590027	-24.545669	-15.495628	-41.731118	3.634739	68.320139	-23.924992	7.060060	66.261742	13.279918	18.187456	-15.397276	
1.1700	-0.079490	5.139627	14.869799	-0.121740	1.027431	0.026687	5.230488	5.802727	22.805403	1.846278	24.827073	-11.440379	25.332157	-56.961633	49.654995	56.221240	-21.672468	21.712565	-23.739963	16.178763	-9.633374	-24.572323	-15.215171	-41.209535	3.716445	68.211801	-23.195758	7.259237	65.456906	13.032310	19.177792	-14.587442	
1.1800	-0.197765	5.014777	14.856705	-0.121529	1.027209	0.025846	5.746308	4.931641	23.645369	1.199791	24.541747	-11.462025	24.279579	-55.958436	52.897897	50.771468	-27.636350	21.047333	-22.697362	16.235372	-9.612580	-24.521217	-14.949227	-40.590248	3.773416	68.033366	-22.428336	7.442858	64.561352	12.803021	20.203629	-13.762594	
1.1900	-0.367079	4.849260	14.817667	-0.121239	1.027020	0.024679	6.400188	3.744157	24.593824	0.350427	24.052242	-11.398424	22.432060	-55.114681	57.795085	42.866709	-36.768061	20.844502	-21.002452	16.232321	-9.488293	-24.356163	-14.723293	-39.849741	3.792872	67.757129	-21.618790	7.633237	63.597703	12.583772	21.298158	-12.877447	
1.2000	-0.676355	4.624850	14.713869	-0.120787	1.026887	0.022760	7.420480	1.562032	25.684797	-1.098818	22.787733	-11.022450	18.719113	-54.983064	66.330107	28.830814	-52.477855	19.939726	-17.484360	16.104219	-9.099749	-23.938251	-14.597567	-38.795241	3.739563	67.298209	-20.751574	7.726090	62.575738	12.469543	22.354741	-11.958509	
1.2100	-1.116770	4.357855	14.559482	-0.120198	1.026836	0.020263	8.711853	-1.413864	26.873017	-3.042232	20.949304	-10.385765	13.598134	-55.473723	77.602433	10.279717	-72.963422	18.278542	-12.527900	15.893306	-8.504600	-23.357169	-14.551188	-37.502112	3.647293	66.692483	-19.847968	7.755547	61.497248	12.464239	23.296272	-11.055094	
1.2200	-1.649500	4.098542	14.370406	-0.119492	1.026861	0.017385	10.190309	-5.002331	28.062234	-5.361354	18.641039	-9.516676	7.613704	-56.562114	90.633905	-11.134281	-96.304934	15.446547	-6.482826	15.650153	-7.778783	-22.709489	-14.542797	-36.036378	3.552603	65.984948	-18.905681	7.688645	60.329710	12.573055	24.091315	-10.205803	
1.2300	-2.170415	3.908043	14.181829	-0.118785	1.026952	0.014764	11.521752	-8.304260	29.155427	-7.534238	16.630291	-8.703393	2.378342	-57.635477	102.388506	-29.925264	-116.977105	12.565969	-0.937605	15.508178	-7.152835	-22.264483	-14.479009	-34.664639	3.543830	65.311989	-17.946352	7.646654	59.045200	12.720175	24.724612	-9.478166	
1.2400	-2.657729	3.802231	14.009077	-0.118104	1.027057	0.012491	12.680549	-11.226903	30.102852	-9.481502	14.915792	-7.967385	-1.827053	-58.638331	112.391993	-45.390843	-134.005777	9.305677	3.920778	15.494836	-6.641037	-22.071635	-14.361138	-33.419084	3.640773	64.674895	-16.954349	7.628887	57.630472	12.889654	25.234181	-8.867920	
1.2500	-3.028754	3.813028	13.875194	-0.117531	1.027175	0.011016	13.432819	-13.095716	30.868010	-10.810631	14.074173	-7.536645	-3.904481	-59.048571	118.490621	-53.708551	-143.720461	6.863975	6.877572	15.681969	-6.420523	-22.279508	-14.113351	-32.490988	3.883242	64.199138	-15.962070	7.702455	56.075177	13.017721	25.642616	-8.396652	
1.2600	-3.289619	3.911055	13.776731	-0.117037	1.027278	0.010187	13.863939	-14.076635	31.494757	-11.606854	13.933199	-7.366433	-4.263098	-58.933561	121.390043	-56.231095	-147.638103	5.235429	8.221199	16.016258	-6.431286	-22.782729	-13.764240	-31.815916	4.229196	63.854583	-14.961707	7.827790	54.387215	13.097981	26.025838	-7.999038	
1.2700	-3.464998	4.061483	13.690506	-0.116598	1.027378	0.009864	14.036282	-14.309399	32.062763	-11.964179	14.422244	-7.438535	-3.347938	-58.342808	121.770671	-54.236827	-147.194978	4.785834	8.193344	16.452124	-6.622534	-23.492208	-13.335126	-31.333873	4.643798	63.626342	-13.966230	7.997876	52.591206	13.141049	26.363015	-7.663337	
1.2800	-3.649440	4.196047	13.606000	-0.116129	1.027448	0.009512	14.228345	-14.535165	32.652879	-12.307151	14.894481	-7.523108	-2.504537	-57.785021	122.103025	-52.283642	-146.743060	4.407148	8.068718	16.886683	-6.769883	-24.200439	-12.935068	-30.827679	5.064324	63.360574	-12.960740	8.150166	50.726049	13.204647	26.640102	-7.350500	
1.2900	-3.837172	4.318021	13.525329	-0.115620	1.027518	0.009137	14.434999	-14.761906	33.261550	-12.646177	15.358870	-7.613887	-1.757277	-57.285616	122.368044	-50.393717	-146.304273	4.092927	7.850408	17.308538	-6.901131	-24.888129	-12.541256	-30.301714	5.479073	63.083891	-11.976661	8.248730	48.808739	13.298990	26.831724	-7.064501	
1.3000	-4.025840	4.423713	13.454353	-0.115078	1.027581	0.008741	14.651344	-14.978038	33.884485	-12.972779	15.820429	-7.715920	-1.110300	-56.843673	122.583824	-48.573723	-145.862889	3.847867	7.516637	17.726478	-7.009743	-25.571802	-12.160261	-29.758918	5.897315	62.773980	-11.013030	8.322937	46.844361	13.415267	26.933268	-6.810704	
1.3100	-4.209067	4.520019	13.384505	-0.114505	1.027642	0.008334	14.870510	-15.175234	34.509226	-13.279483	16.277193	-7.829068	-0.543648	-56.455362	122.769887	-46.847720	-145.425987	3.649778	7.102726	18.142068	-7.115712	-26.254392	-11.777808	-29.206941	6.316978	62.446072	-10.075770	8.369247	44.847921	13.547591	26.961871	-6.576175	
